<!--?xml version="1.0" encoding="UTF-8"?-->

<svg xmlns="http://www.w3.org/2000/svg" version="1.1" width="500px" height="500px" style="shape-rendering: geometricprecision; text-rendering: geometricprecision; image-rendering: optimizequality; fill-rule: evenodd; clip-rule: evenodd;" xmlns:xlink="http://www.w3.org/1999/xlink">
<g><path style="opacity:1" fill="transparent" stroke="#FFFFFF" stroke-width="1" d="M 479.5,159.5 C 480.035,161.446 481.368,162.446 483.5,162.5C 485.785,165.452 488.452,168.118 491.5,170.5C 491.738,172.404 492.738,173.738 494.5,174.5C 495.674,175.514 496.34,176.847 496.5,178.5C 496.12,180.698 496.787,182.365 498.5,183.5C 498.328,184.492 498.662,185.158 499.5,185.5C 499.5,188.5 499.5,191.5 499.5,194.5C 498.566,195.568 498.232,196.901 498.5,198.5C 497.07,201.961 495.904,205.628 495,209.5C 493.394,220.466 492.227,231.466 491.5,242.5C 490.756,246.119 490.423,249.785 490.5,253.5C 488.412,271.359 485.246,289.025 481,306.5C 479.804,311.223 477.804,315.557 475,319.5C 473.13,321.219 470.963,322.219 468.5,322.5C 468.667,281.832 468.5,241.165 468,200.5C 467.661,196.47 465.827,193.47 462.5,191.5C 454.01,190.343 445.343,190.176 436.5,191C 437.044,191.717 437.711,192.217 438.5,192.5C 440.371,192.859 441.871,193.859 443,195.5C 444.908,198.215 446.241,201.215 447,204.5C 447.667,238.167 447.667,271.833 447,305.5C 444.625,312.541 440.125,317.707 433.5,321C 436.71,326.11 441.377,328.944 447.5,329.5C 447.5,334.5 447.5,339.5 447.5,344.5C 445.784,344.371 444.117,344.038 442.5,343.5C 441.365,341.787 439.698,341.12 437.5,341.5C 435.181,341.008 433.181,340.008 431.5,338.5C 431.027,337.094 430.027,336.427 428.5,336.5C 422.935,333.432 418.935,328.932 416.5,323C 407.445,323.091 399.112,320.758 391.5,316C 388.894,314.062 387.061,311.562 386,308.5C 384.368,274.206 384.034,239.873 385,205.5C 385.683,199.67 388.516,195.337 393.5,192.5C 394.289,192.217 394.956,191.717 395.5,191C 381.424,190.176 368.09,190.343 355.5,191.5C 360.313,194.439 363.146,198.772 364,204.5C 364.5,243.499 364.667,282.499 364.5,321.5C 359.167,321.5 353.833,321.5 348.5,321.5C 348.5,301.167 348.5,280.833 348.5,260.5C 339.696,262.823 331.03,265.657 322.5,269C 321.333,270.167 320.167,271.333 319,272.5C 317.53,288.404 317.03,304.404 317.5,320.5C 312.5,320.5 307.5,320.5 302.5,320.5C 302.5,281.833 302.5,243.167 302.5,204.5C 303.399,199.027 306.066,194.694 310.5,191.5C 297.91,190.343 284.576,190.176 270.5,191C 271.044,191.717 271.711,192.217 272.5,192.5C 275.912,194.609 278.412,197.609 280,201.5C 280.667,216.167 280.667,230.833 280,245.5C 279.044,248.377 277.711,251.044 276,253.5C 273.147,255.692 270.314,257.858 267.5,260C 274.321,279.803 280.988,299.636 287.5,319.5C 282.36,320.488 277.026,320.821 271.5,320.5C 264.764,301.79 257.93,283.123 251,264.5C 246.458,266.186 241.958,268.019 237.5,270C 236.299,270.903 235.465,272.069 235,273.5C 234.667,289.167 234.333,304.833 234,320.5C 228.928,321.471 223.762,321.805 218.5,321.5C 218.333,281.499 218.5,241.499 219,201.5C 220.588,197.609 223.088,194.609 226.5,192.5C 227.289,192.217 227.956,191.717 228.5,191C 214.833,190.333 201.167,190.333 187.5,191C 188.044,191.717 188.711,192.217 189.5,192.5C 194.911,195.983 197.744,200.983 198,207.5C 198.667,245.167 198.667,282.833 198,320.5C 192.734,321.824 187.567,321.824 182.5,320.5C 182.833,300.156 182.5,279.822 181.5,259.5C 180.893,259.624 180.56,259.957 180.5,260.5C 173.243,263.086 165.91,265.586 158.5,268C 155.898,268.883 153.731,270.383 152,272.5C 151.667,288.5 151.333,304.5 151,320.5C 145.928,321.471 140.762,321.805 135.5,321.5C 135.333,281.499 135.5,241.499 136,201.5C 137.588,197.609 140.088,194.609 143.5,192.5C 144.289,192.217 144.956,191.717 145.5,191C 132.154,190.167 118.821,190.334 105.5,191.5C 105.624,192.107 105.957,192.44 106.5,192.5C 108.017,192.511 109.184,193.177 110,194.5C 111.368,197.186 112.701,199.853 114,202.5C 114.98,238.227 114.647,273.894 113,309.5C 110.753,314.712 106.92,318.212 101.5,320C 85.0348,321.745 68.7015,321.912 52.5,320.5C 52.5,277.167 52.5,233.833 52.5,190.5C 47.3054,190.179 42.3054,190.513 37.5,191.5C 34.5392,192.393 32.7059,194.393 32,197.5C 31.6667,238.833 31.3333,280.167 31,321.5C 27.5959,322.185 24.9293,320.852 23,317.5C 18.9547,310.322 16.288,302.655 15,294.5C 9.11592,261.133 3.94926,227.799 -0.5,194.5C -0.5,191.833 -0.5,189.167 -0.5,186.5C 0.166667,186.5 0.5,186.167 0.5,185.5C 1.92381,183.485 2.59047,181.152 2.5,178.5C 2.6596,176.847 3.32627,175.514 4.5,174.5C 5.90632,174.027 6.57298,173.027 6.5,171.5C 7.90632,171.027 8.57298,170.027 8.5,168.5C 8.83333,167.5 9.5,166.833 10.5,166.5C 12.7488,165.92 14.4154,164.587 15.5,162.5C 15.9731,161.094 16.9731,160.427 18.5,160.5C 20.0269,160.573 21.0269,159.906 21.5,158.5C 28.0508,156.35 34.8841,155.017 42,154.5C 184.139,155.331 326.306,155.831 468.5,156C 472.614,156.115 476.281,157.282 479.5,159.5 Z M 160.5,200.5 C 167.771,199.409 174.271,201.076 180,205.5C 181.623,217.07 181.957,228.736 181,240.5C 180.215,242.286 179.049,243.786 177.5,245C 169.04,248.315 160.54,251.482 152,254.5C 151.333,238.5 151.333,222.5 152,206.5C 154.322,203.605 157.155,201.605 160.5,200.5 Z M 235.5,254.5 C 234.504,239.342 234.17,224.009 234.5,208.5C 236.235,203.938 239.569,201.438 244.5,201C 261.84,198.845 268.506,206.345 264.5,223.5C 264.627,229.937 264.127,236.27 263,242.5C 261.786,244.049 260.286,245.215 258.5,246C 250.696,248.764 243.03,251.598 235.5,254.5 Z M 327.5,200.5 C 334.611,199.527 340.944,201.193 346.5,205.5C 347,206.5 347.5,207.5 348,208.5C 348.667,218.5 348.667,228.5 348,238.5C 347.837,240.676 347.004,242.509 345.5,244C 336.629,247.791 327.629,251.291 318.5,254.5C 317.334,239.178 317.167,223.844 318,208.5C 318.273,206.671 319.107,205.171 320.5,204C 322.925,202.787 325.259,201.621 327.5,200.5 Z M 412.5,200.5 C 417.333,200.375 422,201.208 426.5,203C 428.726,204.227 430.226,206.061 431,208.5C 431.667,239.167 431.667,269.833 431,300.5C 429.359,304.758 426.192,307.258 421.5,308C 414.777,309.336 408.61,308.169 403,304.5C 402.138,302.913 401.471,301.246 401,299.5C 400.333,269.833 400.333,240.167 401,210.5C 402.547,204.448 406.381,201.115 412.5,200.5 Z M 91.5,201.5 C 94.4488,202.614 96.6155,204.614 98,207.5C 98.6667,238.833 98.6667,270.167 98,301.5C 96.669,303.996 94.8356,305.996 92.5,307.5C 84.5,307.5 76.5,307.5 68.5,307.5C 68.5,272.167 68.5,236.833 68.5,201.5C 76.1667,201.5 83.8333,201.5 91.5,201.5 Z" class="RANsjbgk_0"></path></g>
<g><path style="opacity:0.886" fill="transparent" stroke="#FFFFFF" stroke-width="1" d="M 21.5,158.5 C 21.0269,159.906 20.0269,160.573 18.5,160.5C 18.9731,159.094 19.9731,158.427 21.5,158.5 Z" class="RANsjbgk_1"></path></g>
<g><path style="opacity:0.91" fill="transparent" stroke="#FFFFFF" stroke-width="1" d="M 479.5,159.5 C 481.23,160.026 482.564,161.026 483.5,162.5C 481.368,162.446 480.035,161.446 479.5,159.5 Z" class="RANsjbgk_2"></path></g>
<g><path style="opacity:0.706" fill="transparent" stroke="#FFFFFF" stroke-width="1" d="M 483.5,162.5 C 487.188,164.188 489.855,166.855 491.5,170.5C 488.452,168.118 485.785,165.452 483.5,162.5 Z" class="RANsjbgk_3"></path></g>
<g><path style="opacity:0.925" fill="transparent" stroke="#FFFFFF" stroke-width="1" d="M 15.5,162.5 C 14.4154,164.587 12.7488,165.92 10.5,166.5C 11.5846,164.413 13.2512,163.08 15.5,162.5 Z" class="RANsjbgk_4"></path></g>
<g><path style="opacity:0.851" fill="transparent" stroke="#FFFFFF" stroke-width="1" d="M 8.5,168.5 C 8.57298,170.027 7.90632,171.027 6.5,171.5C 6.42702,169.973 7.09368,168.973 8.5,168.5 Z" class="RANsjbgk_5"></path></g>
<g><path style="opacity:0.878" fill="transparent" stroke="#FFFFFF" stroke-width="1" d="M 491.5,170.5 C 493.262,171.262 494.262,172.596 494.5,174.5C 492.738,173.738 491.738,172.404 491.5,170.5 Z" class="RANsjbgk_6"></path></g>
<g><path style="opacity:0.749" fill="transparent" stroke="#FFFFFF" stroke-width="1" d="M 6.5,171.5 C 6.57298,173.027 5.90632,174.027 4.5,174.5C 4.42702,172.973 5.09368,171.973 6.5,171.5 Z" class="RANsjbgk_7"></path></g>
<g><path style="opacity:0.976" fill="transparent" stroke="#FFFFFF" stroke-width="1" d="M 2.5,178.5 C 2.59047,181.152 1.92381,183.485 0.5,185.5C 0.409526,182.848 1.07619,180.515 2.5,178.5 Z" class="RANsjbgk_8"></path></g>
<g><path style="opacity:0.925" fill="transparent" stroke="#FFFFFF" stroke-width="1" d="M 496.5,178.5 C 497.537,179.93 498.204,181.597 498.5,183.5C 496.787,182.365 496.12,180.698 496.5,178.5 Z" class="RANsjbgk_9"></path></g>
<g><path style="opacity:0.061" fill="transparent" stroke="#FFFFFF" stroke-width="1" d="M 143.5,192.5 C 131.167,191.167 118.833,191.167 106.5,192.5C 105.957,192.44 105.624,192.107 105.5,191.5C 118.821,190.334 132.154,190.167 145.5,191C 144.956,191.717 144.289,192.217 143.5,192.5 Z" class="RANsjbgk_10"></path></g>
<g><path style="opacity:0.059" fill="transparent" stroke="#FFFFFF" stroke-width="1" d="M 226.5,192.5 C 214.167,191.167 201.833,191.167 189.5,192.5C 188.711,192.217 188.044,191.717 187.5,191C 201.167,190.333 214.833,190.333 228.5,191C 227.956,191.717 227.289,192.217 226.5,192.5 Z" class="RANsjbgk_11"></path></g>
<g><path style="opacity:0.055" fill="transparent" stroke="#FFFFFF" stroke-width="1" d="M 310.5,191.5 C 297.656,191.171 284.989,191.505 272.5,192.5C 271.711,192.217 271.044,191.717 270.5,191C 284.576,190.176 297.91,190.343 310.5,191.5 Z" class="RANsjbgk_12"></path></g>
<g><path style="opacity:0.059" fill="transparent" stroke="#FFFFFF" stroke-width="1" d="M 393.5,192.5 C 381.011,191.505 368.344,191.171 355.5,191.5C 368.09,190.343 381.424,190.176 395.5,191C 394.956,191.717 394.289,192.217 393.5,192.5 Z" class="RANsjbgk_13"></path></g>
<g><path style="opacity:0.073" fill="transparent" stroke="#FFFFFF" stroke-width="1" d="M 462.5,191.5 C 454.316,191.174 446.316,191.508 438.5,192.5C 437.711,192.217 437.044,191.717 436.5,191C 445.343,190.176 454.01,190.343 462.5,191.5 Z" class="RANsjbgk_14"></path></g>
<g><path style="opacity:0.034" fill="transparent" stroke="#FFFFFF" stroke-width="1" d="M 37.5,191.5 C 42.3054,190.513 47.3054,190.179 52.5,190.5C 52.5,233.833 52.5,277.167 52.5,320.5C 51.5013,277.67 51.168,234.67 51.5,191.5C 46.8333,191.5 42.1667,191.5 37.5,191.5 Z" class="RANsjbgk_15"></path></g>
<g><path style="opacity:1" fill="transparent" stroke="#FFFFFF" stroke-width="1" d="M 123.5,199.5 C 124.5,199.5 125.5,199.5 126.5,199.5C 126.5,240.167 126.5,280.833 126.5,321.5C 125.178,321.67 124.011,321.337 123,320.5C 122.173,280.096 122.34,239.762 123.5,199.5 Z" class="RANsjbgk_16"></path></g>
<g><path style="opacity:0.997" fill="transparent" stroke="#FFFFFF" stroke-width="1" d="M 206.5,199.5 C 207.5,199.5 208.5,199.5 209.5,199.5C 209.5,240.167 209.5,280.833 209.5,321.5C 208.178,321.67 207.011,321.337 206,320.5C 205.173,280.096 205.34,239.762 206.5,199.5 Z" class="RANsjbgk_17"></path></g>
<g><path style="opacity:1" fill="transparent" stroke="#FFFFFF" stroke-width="1" d="M 289.5,199.5 C 290.822,199.33 291.989,199.663 293,200.5C 293.667,240.5 293.667,280.5 293,320.5C 291.989,321.337 290.822,321.67 289.5,321.5C 289.5,280.833 289.5,240.167 289.5,199.5 Z" class="RANsjbgk_18"></path></g>
<g><path style="opacity:0.461" fill="transparent" stroke="#FFFFFF" stroke-width="1" d="M 375.5,200.5 C 373.506,240.153 372.839,280.153 373.5,320.5C 373.5,320.833 373.5,321.167 373.5,321.5C 372.501,281.003 372.168,240.337 372.5,199.5C 373.791,199.263 374.791,199.596 375.5,200.5 Z" class="RANsjbgk_19"></path></g>
<g><path style="opacity:1" fill="transparent" stroke="#FFFFFF" stroke-width="1" d="M 375.5,200.5 C 376.161,240.847 375.494,280.847 373.5,320.5C 372.839,280.153 373.506,240.153 375.5,200.5 Z" class="RANsjbgk_20"></path></g>
<g><path style="opacity:1" fill="transparent" stroke="#FFFFFF" stroke-width="1" d="M 458.5,200.5 C 457.833,360.5 457.167,360.5 456.5,200.5C 457.167,199.167 457.833,199.167 458.5,200.5 Z" class="RANsjbgk_21"></path></g>
<g><path style="opacity:0.427" fill="transparent" stroke="#FFFFFF" stroke-width="1" d="M 456.5,200.5 C 457.167,360.5 457.833,360.5 458.5,200.5C 459.499,240.663 459.832,280.997 459.5,321.5C 458.167,321.5 456.833,321.5 455.5,321.5C 455.168,280.997 455.501,240.663 456.5,200.5 Z" class="RANsjbgk_22"></path></g>
<g><path style="opacity:0.012" fill="transparent" stroke="#FFFFFF" stroke-width="1" d="M 91.5,201.5 C 83.8333,201.5 76.1667,201.5 68.5,201.5C 68.5,236.833 68.5,272.167 68.5,307.5C 76.5,307.5 84.5,307.5 92.5,307.5C 84.3501,308.493 76.0168,308.826 67.5,308.5C 67.5,272.5 67.5,236.5 67.5,200.5C 75.6841,200.174 83.6841,200.508 91.5,201.5 Z" class="RANsjbgk_23"></path></g>
<g><path style="opacity:0.076" fill="transparent" stroke="#FFFFFF" stroke-width="1" d="M 234.5,208.5 C 234.17,224.009 234.504,239.342 235.5,254.5C 235.44,255.043 235.107,255.376 234.5,255.5C 233.173,239.672 233.173,224.005 234.5,208.5 Z" class="RANsjbgk_24"></path></g>
<g><path style="opacity:0.404" fill="transparent" stroke="#FFFFFF" stroke-width="1" d="M 40.5,200.5 C 41.209,199.596 42.209,199.263 43.5,199.5C 43.5,240.167 43.5,280.833 43.5,321.5C 42.1667,321.5 40.8333,321.5 39.5,321.5C 39.1681,280.997 39.5014,240.663 40.5,200.5 Z" class="RANsjbgk_25"></path></g>
<g><path style="opacity:1" fill="transparent" stroke="#FFFFFF" stroke-width="1" d="M 40.5,200.5 C 41.833,220.155 42.4997,240.155 42.5,260.5C 42.1667,280.5 41.8333,300.5 41.5,320.5C 40.5001,280.506 40.1668,240.506 40.5,200.5 Z" class="RANsjbgk_26"></path></g>
<g><path style="opacity:0.243" fill="transparent" stroke="#FFFFFF" stroke-width="1" d="M 375.5,200.5 C 376.499,240.663 376.832,280.997 376.5,321.5C 375.5,321.5 374.5,321.5 373.5,321.5C 373.5,321.167 373.5,320.833 373.5,320.5C 375.494,280.847 376.161,240.847 375.5,200.5 Z" class="RANsjbgk_27"></path></g>
<g><path style="opacity:0.937" fill="transparent" stroke="#FFFFFF" stroke-width="1" d="M 498.5,198.5 C 496.827,213.216 494.827,227.883 492.5,242.5C 492.167,242.5 491.833,242.5 491.5,242.5C 492.227,231.466 493.394,220.466 495,209.5C 495.904,205.628 497.07,201.961 498.5,198.5 Z" class="RANsjbgk_28"></path></g>
<g><path style="opacity:0.469" fill="transparent" stroke="#FFFFFF" stroke-width="1" d="M 302.5,204.5 C 302.5,243.167 302.5,281.833 302.5,320.5C 307.5,320.5 312.5,320.5 317.5,320.5C 312.36,321.488 307.026,321.821 301.5,321.5C 301.168,282.33 301.501,243.33 302.5,204.5 Z" class="RANsjbgk_29"></path></g>
<g><path style="opacity:0.859" fill="transparent" stroke="#FFFFFF" stroke-width="1" d="M 491.5,242.5 C 491.833,242.5 492.167,242.5 492.5,242.5C 492.192,246.36 491.525,250.026 490.5,253.5C 490.423,249.785 490.756,246.119 491.5,242.5 Z" class="RANsjbgk_30"></path></g>
<g><path style="opacity:0.035" fill="transparent" stroke="#FFFFFF" stroke-width="1" d="M 180.5,260.5 C 180.56,259.957 180.893,259.624 181.5,259.5C 182.5,279.822 182.833,300.156 182.5,320.5C 181.833,300.5 181.167,280.5 180.5,260.5 Z" class="RANsjbgk_31"></path></g>
<g><path style="opacity:0.023" fill="transparent" stroke="#FFFFFF" stroke-width="1" d="M 287.5,319.5 C 288.043,319.56 288.376,319.893 288.5,320.5C 282.68,321.816 277.013,321.816 271.5,320.5C 277.026,320.821 282.36,320.488 287.5,319.5 Z" class="RANsjbgk_32"></path></g>
<g><path style="opacity:0.62" fill="transparent" stroke="#FFFFFF" stroke-width="1" d="M 428.5,336.5 C 430.027,336.427 431.027,337.094 431.5,338.5C 429.973,338.573 428.973,337.906 428.5,336.5 Z" class="RANsjbgk_33"></path></g>
<g><path style="opacity:0.965" fill="transparent" stroke="#FFFFFF" stroke-width="1" d="M 437.5,341.5 C 439.698,341.12 441.365,341.787 442.5,343.5C 440.597,343.204 438.93,342.537 437.5,341.5 Z" class="RANsjbgk_34"></path></g>
<style data-made-with="vivus-instant">.RANsjbgk_0{stroke-dasharray:4250 4252;stroke-dashoffset:4251;animation:RANsjbgk_draw 3163ms linear 0ms forwards;}.RANsjbgk_1{stroke-dasharray:8 10;stroke-dashoffset:9;animation:RANsjbgk_draw 6ms linear 3163ms forwards;}.RANsjbgk_2{stroke-dasharray:11 13;stroke-dashoffset:12;animation:RANsjbgk_draw 8ms linear 3170ms forwards;}.RANsjbgk_3{stroke-dasharray:23 25;stroke-dashoffset:24;animation:RANsjbgk_draw 17ms linear 3178ms forwards;}.RANsjbgk_4{stroke-dasharray:14 16;stroke-dashoffset:15;animation:RANsjbgk_draw 11ms linear 3196ms forwards;}.RANsjbgk_5{stroke-dasharray:8 10;stroke-dashoffset:9;animation:RANsjbgk_draw 6ms linear 3207ms forwards;}.RANsjbgk_6{stroke-dasharray:11 13;stroke-dashoffset:12;animation:RANsjbgk_draw 8ms linear 3214ms forwards;}.RANsjbgk_7{stroke-dasharray:8 10;stroke-dashoffset:9;animation:RANsjbgk_draw 6ms linear 3223ms forwards;}.RANsjbgk_8{stroke-dasharray:15 17;stroke-dashoffset:16;animation:RANsjbgk_draw 11ms linear 3230ms forwards;}.RANsjbgk_9{stroke-dasharray:12 14;stroke-dashoffset:13;animation:RANsjbgk_draw 9ms linear 3242ms forwards;}.RANsjbgk_10{stroke-dasharray:82 84;stroke-dashoffset:83;animation:RANsjbgk_draw 61ms linear 3251ms forwards;}.RANsjbgk_11{stroke-dasharray:84 86;stroke-dashoffset:85;animation:RANsjbgk_draw 63ms linear 3313ms forwards;}.RANsjbgk_12{stroke-dasharray:81 83;stroke-dashoffset:82;animation:RANsjbgk_draw 61ms linear 3376ms forwards;}.RANsjbgk_13{stroke-dasharray:81 83;stroke-dashoffset:82;animation:RANsjbgk_draw 61ms linear 3437ms forwards;}.RANsjbgk_14{stroke-dasharray:53 55;stroke-dashoffset:54;animation:RANsjbgk_draw 40ms linear 3498ms forwards;}.RANsjbgk_15{stroke-dasharray:289 291;stroke-dashoffset:290;animation:RANsjbgk_draw 215ms linear 3539ms forwards;}.RANsjbgk_16{stroke-dasharray:250 252;stroke-dashoffset:251;animation:RANsjbgk_draw 186ms linear 3754ms forwards;}.RANsjbgk_17{stroke-dasharray:250 252;stroke-dashoffset:251;animation:RANsjbgk_draw 186ms linear 3941ms forwards;}.RANsjbgk_18{stroke-dasharray:250 252;stroke-dashoffset:251;animation:RANsjbgk_draw 186ms linear 4128ms forwards;}.RANsjbgk_19{stroke-dasharray:247 249;stroke-dashoffset:248;animation:RANsjbgk_draw 184ms linear 4315ms forwards;}.RANsjbgk_20{stroke-dasharray:241 243;stroke-dashoffset:242;animation:RANsjbgk_draw 180ms linear 4499ms forwards;}.RANsjbgk_21{stroke-dasharray:243 245;stroke-dashoffset:244;animation:RANsjbgk_draw 181ms linear 4679ms forwards;}.RANsjbgk_22{stroke-dasharray:487 489;stroke-dashoffset:488;animation:RANsjbgk_draw 363ms linear 4861ms forwards;}.RANsjbgk_23{stroke-dasharray:311 313;stroke-dashoffset:312;animation:RANsjbgk_draw 232ms linear 5224ms forwards;}.RANsjbgk_24{stroke-dasharray:95 97;stroke-dashoffset:96;animation:RANsjbgk_draw 71ms linear 5456ms forwards;}.RANsjbgk_25{stroke-dasharray:251 253;stroke-dashoffset:252;animation:RANsjbgk_draw 187ms linear 5528ms forwards;}.RANsjbgk_26{stroke-dasharray:241 243;stroke-dashoffset:242;animation:RANsjbgk_draw 180ms linear 5715ms forwards;}.RANsjbgk_27{stroke-dasharray:246 248;stroke-dashoffset:247;animation:RANsjbgk_draw 183ms linear 5895ms forwards;}.RANsjbgk_28{stroke-dasharray:91 93;stroke-dashoffset:92;animation:RANsjbgk_draw 68ms linear 6079ms forwards;}.RANsjbgk_29{stroke-dasharray:265 267;stroke-dashoffset:266;animation:RANsjbgk_draw 197ms linear 6148ms forwards;}.RANsjbgk_30{stroke-dasharray:24 26;stroke-dashoffset:25;animation:RANsjbgk_draw 18ms linear 6345ms forwards;}.RANsjbgk_31{stroke-dasharray:123 125;stroke-dashoffset:124;animation:RANsjbgk_draw 92ms linear 6364ms forwards;}.RANsjbgk_32{stroke-dasharray:35 37;stroke-dashoffset:36;animation:RANsjbgk_draw 26ms linear 6456ms forwards;}.RANsjbgk_33{stroke-dasharray:8 10;stroke-dashoffset:9;animation:RANsjbgk_draw 6ms linear 6483ms forwards;}.RANsjbgk_34{stroke-dasharray:12 14;stroke-dashoffset:13;animation:RANsjbgk_draw 9ms linear 6490ms forwards;}@keyframes RANsjbgk_draw{100%{stroke-dashoffset:0;}}@keyframes RANsjbgk_fade{0%{stroke-opacity:1;}83.739837398374%{stroke-opacity:1;}100%{stroke-opacity:0;}}</style></svg>
