<?xml version="1.0" standalone="no"?>
<!DOCTYPE svg PUBLIC "-//W3C//DTD SVG 20010904//EN"
 "http://www.w3.org/TR/2001/REC-SVG-20010904/DTD/svg10.dtd">
<svg version="1.0" xmlns="http://www.w3.org/2000/svg"
 width="1422.000000pt" height="1422.000000pt" viewBox="0 0 1422.000000 1422.000000"
 preserveAspectRatio="xMidYMid meet">
<metadata>
Created by potrace 1.14, written by Peter Selinger 2001-2017
</metadata>
<g transform="translate(0.000000,1422.000000) scale(0.100000,-0.100000)"
fill="#000000" stroke="none">
<path d="M3477 12043 c-229 -494 -417 -904 -417 -911 0 -41 707 -3519 735
-3619 66 -230 165 -475 277 -681 92 -171 260 -418 388 -570 l112 -134 -25 -37
c-38 -58 -74 -132 -99 -207 -20 -60 -23 -89 -23 -219 0 -131 3 -159 23 -220
59 -174 168 -322 311 -420 l68 -47 -9 -41 c-5 -23 -27 -127 -48 -232 -21 -104
-110 -486 -196 -848 l-158 -657 -19 32 c-173 291 -392 479 -677 583 -449 162
-953 51 -1290 -285 -173 -171 -270 -341 -338 -589 l-26 -96 -4 -740 c-3 -817
-2 -849 58 -1028 126 -373 413 -664 777 -788 149 -50 234 -63 403 -63 169 0
254 13 404 64 365 123 659 421 776 787 54 167 60 232 60 608 l0 343 276 1148
c152 632 291 1212 309 1289 18 77 40 165 48 195 l14 55 12 -40 c6 -22 25 -107
42 -190 18 -82 35 -152 39 -155 4 -3 136 -516 294 -1141 l286 -1135 0 -290 c0
-325 11 -477 41 -602 119 -481 508 -840 1005 -927 264 -46 583 11 816 147 316
183 524 471 604 838 18 79 19 141 19 825 0 669 -2 748 -18 827 -91 449 -407
812 -827 952 -132 44 -225 58 -380 60 -166 1 -249 -11 -399 -60 -295 -96 -541
-297 -696 -569 -25 -44 -45 -77 -45 -73 0 3 -83 336 -185 740 -102 403 -199
798 -216 878 -16 80 -32 152 -34 160 -3 10 20 30 67 60 39 25 99 76 134 114
252 271 281 658 74 972 l-21 32 49 53 c333 371 602 868 737 1363 23 84 725
3548 725 3578 0 7 -188 417 -417 910 -288 618 -420 892 -425 880 -6 -13 -840
-4050 -1216 -5881 -50 -248 -68 -318 -73 -295 -5 16 -292 1406 -639 3089 -347
1683 -634 3070 -638 3083 -6 17 -95 -167 -425 -875z m567 -1750 c158 -769 402
-1951 542 -2627 140 -676 252 -1231 250 -1233 -4 -5 -135 153 -203 244 -208
282 -392 670 -477 1011 -14 54 -174 840 -356 1748 l-332 1651 138 301 c77 166
141 302 144 302 3 0 135 -629 294 -1397z m2721 1088 l136 -294 -331 -1651
c-183 -908 -342 -1694 -356 -1748 -86 -345 -262 -714 -487 -1023 -66 -89 -189
-237 -194 -232 -2 2 233 1151 523 2553 289 1402 533 2584 541 2627 9 43 20 74
24 70 4 -4 69 -140 144 -302z m-1480 -5356 c33 -9 84 -32 113 -52 281 -192
186 -629 -150 -682 -171 -28 -332 58 -406 217 -23 49 -27 70 -27 152 0 88 3
101 33 162 37 75 101 139 177 177 88 44 162 51 260 26z m-1755 -2545 c286 -82
511 -312 592 -605 23 -79 23 -85 23 -810 0 -830 4 -786 -85 -970 -101 -209
-264 -353 -493 -434 -101 -36 -103 -36 -267 -36 -161 0 -168 1 -260 33 -280
97 -467 292 -557 577 l-28 90 0 740 0 740 28 88 c102 327 348 545 687 611 14
2 84 3 155 1 96 -2 150 -9 205 -25z m3727 15 c102 -19 237 -72 317 -125 70
-45 185 -159 235 -233 44 -65 97 -180 116 -252 32 -122 36 -256 32 -902 -3
-615 -4 -641 -25 -720 -82 -314 -306 -538 -622 -622 -74 -20 -101 -23 -230
-19 -114 4 -160 10 -215 28 -239 76 -408 220 -515 435 -90 182 -85 128 -85
985 l0 755 28 85 c109 325 364 539 707 593 60 10 184 6 257 -8z"/>
<path d="M9890 12435 l0 -195 570 0 570 0 0 -275 0 -275 -570 0 -570 0 0 -200
0 -200 570 0 570 0 0 -295 0 -295 -570 0 -570 0 0 -195 0 -195 570 0 570 0 0
-295 0 -295 -570 0 -570 0 2 -197 3 -198 568 -3 567 -2 0 -290 0 -290 -567 -2
-568 -3 -3 -197 -2 -198 570 0 570 0 0 -295 0 -295 -570 0 -570 0 2 -197 3
-198 568 -3 567 -2 0 -290 0 -290 -567 -2 -568 -3 -3 -197 -2 -198 570 0 570
0 0 -295 0 -295 -570 0 -570 0 0 -195 0 -195 570 0 570 0 0 -295 0 -295 -570
0 -570 0 0 -200 0 -200 570 0 570 0 0 -295 0 -295 -570 0 -570 0 0 -195 0
-195 570 0 570 0 0 -295 0 -295 -570 0 -570 0 2 -198 3 -197 568 -3 567 -2 0
-295 0 -295 -570 0 -570 0 0 -195 0 -195 570 0 570 0 0 -255 0 -255 -570 0
-570 0 0 -195 0 -195 1013 0 c657 0 1035 4 1077 11 94 15 233 64 319 112 44
25 112 78 167 130 140 133 223 274 270 457 19 73 19 186 19 5335 l0 5260 -23
84 c-96 347 -362 601 -707 672 -84 18 -155 19 -1112 19 l-1023 0 0 -195z
m2068 -210 c180 -43 329 -181 385 -360 l22 -70 0 -5205 0 -5205 -24 -72 c-59
-182 -211 -319 -399 -359 -46 -9 -137 -14 -289 -14 l-223 0 0 5650 0 5650 233
0 c169 0 249 -4 295 -15z"/>
</g>
</svg>
