<!--?xml version="1.0" encoding="UTF-8"?-->

<svg xmlns="http://www.w3.org/2000/svg" version="1.1" width="350px" height="137px" style="shape-rendering: geometricprecision; text-rendering: geometricprecision; image-rendering: optimizequality; fill-rule: evenodd; clip-rule: evenodd;" xmlns:xlink="http://www.w3.org/1999/xlink">
<g><path style="opacity:0.995" fill="transparent" stroke="#FFFFFF" stroke-width="1" d="M 347.5,19.5 C 348.275,24.7968 348.608,30.1301 348.5,35.5C 348.5,36.1667 348.5,36.8333 348.5,37.5C 345.784,43.6604 345.117,49.9937 346.5,56.5C 343.756,74.1923 340.59,91.859 337,109.5C 335.75,113.607 333.583,117.107 330.5,120C 329.552,120.483 328.552,120.649 327.5,120.5C 327.667,91.8314 327.5,63.1647 327,34.5C 326.993,31.6901 325.826,29.6901 323.5,28.5C 316.281,27.2335 311.281,27.2335 308.5,28.5C 310.514,31.1943 312.014,34.1943 313,37.5C 313.667,61.1667 313.667,84.8333 313,108.5C 312,110.5 311,112.5 310,114.5C 307.704,116.057 305.538,117.724 303.5,119.5C 306.011,122.755 309.344,124.422 313.5,124.5C 313.5,128.167 313.5,131.833 313.5,135.5C 303.586,134.877 296.253,130.21 291.5,121.5C 284.269,121.072 277.769,118.738 272,114.5C 271.333,113.167 270.667,111.833 270,110.5C 268.363,86.5631 268.03,62.5631 269,38.5C 269.438,35.624 270.438,32.9573 272,30.5C 272.671,29.7476 273.504,29.4142 274.5,29.5C 275.289,29.2172 275.956,28.7172 276.5,28C 266.833,27.3333 257.167,27.3333 247.5,28C 248.244,29.0386 249.244,29.5386 250.5,29.5C 253.149,31.4121 254.482,34.0787 254.5,37.5C 254.5,64.5 254.5,91.5 254.5,118.5C 250.833,118.5 247.167,118.5 243.5,118.5C 243.667,104.496 243.5,90.496 243,76.5C 237.986,78.7134 232.82,80.5468 227.5,82C 225.34,82.9959 223.673,84.4959 222.5,86.5C 221.506,96.9869 221.172,107.654 221.5,118.5C 218.167,118.5 214.833,118.5 211.5,118.5C 211.831,91.6614 211.498,64.9948 210.5,38.5C 211.408,35.0125 213.074,32.0125 215.5,29.5C 216.756,29.5386 217.756,29.0386 218.5,28C 208.833,27.3333 199.167,27.3333 189.5,28C 190.044,28.7172 190.711,29.2172 191.5,29.5C 193.708,30.8936 195.208,32.8936 196,35.5C 196.667,45.8333 196.667,56.1667 196,66.5C 195.667,67.5 195.333,68.5 195,69.5C 192.434,72.0664 189.934,74.5664 187.5,77C 191.739,89.8828 196.072,102.716 200.5,115.5C 200.5,116.5 200.5,117.5 200.5,118.5C 196.833,118.5 193.167,118.5 189.5,118.5C 185.155,105.629 180.322,92.9626 175,80.5C 171.46,81.0065 168.293,82.3398 165.5,84.5C 164.501,96.1477 164.168,107.814 164.5,119.5C 160.5,119.5 156.5,119.5 152.5,119.5C 152.333,91.498 152.5,63.498 153,35.5C 153.566,32.7713 155.066,30.7713 157.5,29.5C 158.289,29.2172 158.956,28.7172 159.5,28C 150.167,27.3333 140.833,27.3333 131.5,28C 132.044,28.7172 132.711,29.2172 133.5,29.5C 135.708,30.8936 137.208,32.8936 138,35.5C 138.5,63.1647 138.667,90.8313 138.5,118.5C 134.833,118.5 131.167,118.5 127.5,118.5C 127.833,104.484 127.499,90.4841 126.5,76.5C 125.893,76.6236 125.56,76.9569 125.5,77.5C 119.08,79.1404 112.913,81.4737 107,84.5C 105.564,96.0903 105.064,107.757 105.5,119.5C 101.833,119.5 98.1667,119.5 94.5,119.5C 94.3334,91.498 94.5,63.498 95,35.5C 95.6236,32.7261 97.1236,30.7261 99.5,29.5C 100.289,29.2172 100.956,28.7172 101.5,28C 92.1667,27.3333 82.8333,27.3333 73.5,28C 74.0442,28.7172 74.7109,29.2172 75.5,29.5C 77.9842,31.1198 79.4842,33.4531 80,36.5C 80.9713,61.5627 80.638,86.5627 79,111.5C 77.1083,115.058 74.2749,117.558 70.5,119C 58.6593,119.826 46.9927,119.659 35.5,118.5C 36.4981,88.3379 36.8315,58.0046 36.5,27.5C 32.6286,27.185 28.9619,27.5184 25.5,28.5C 24.5313,29.3094 23.6979,30.3094 23,31.5C 22.6667,60.5 22.3333,89.5 22,118.5C 19.8064,121.017 17.8064,120.684 16,117.5C 13.0059,112.184 11.0059,106.518 10,100.5C 6.29185,78.4362 2.79185,56.7695 -0.5,35.5C -0.5,30.8333 -0.5,26.1667 -0.5,21.5C 0.307663,19.7798 1.30766,18.1131 2.5,16.5C 3.90632,16.0269 4.57298,15.0269 4.5,13.5C 8.5347,7.4769 14.2014,3.9769 21.5,3C 123.5,2.33333 225.5,2.33333 327.5,3C 337.331,4.66489 343.998,10.1649 347.5,19.5 Z M 112.5,34.5 C 117.59,33.9682 122.09,35.3016 126,38.5C 126.667,46.8333 126.667,55.1667 126,63.5C 119.608,67.0766 112.941,70.0766 106,72.5C 105.333,62.1667 105.333,51.8333 106,41.5C 106.991,38.0107 109.158,35.6774 112.5,34.5 Z M 170.5,34.5 C 175.606,33.9253 180.106,35.2587 184,38.5C 184.667,46.8333 184.667,55.1667 184,63.5C 178.35,67.2921 172.183,69.9587 165.5,71.5C 164.334,60.5151 164.168,49.5151 165,38.5C 166.812,37.0229 168.645,35.6896 170.5,34.5 Z M 222.5,72.5 C 222.189,61.0857 222.523,49.7524 223.5,38.5C 229.014,33.8375 235.014,33.3375 241.5,37C 243.052,41.4806 243.719,46.1473 243.5,51C 243.569,55.5847 243.069,60.0847 242,64.5C 235.609,67.4629 229.109,70.1296 222.5,72.5 Z M 288.5,34.5 C 292.319,34.605 295.986,35.4383 299.5,37C 300.126,37.7504 300.626,38.5838 301,39.5C 301.667,61.5 301.667,83.5 301,105.5C 298.627,108.86 295.293,110.527 291,110.5C 287.988,110.274 285.155,109.441 282.5,108C 281.809,106.933 281.309,105.766 281,104.5C 280.333,83.1667 280.333,61.8333 281,40.5C 282.516,37.1795 285.016,35.1795 288.5,34.5 Z M 47.5,35.5 C 53.1764,35.3339 58.8431,35.5006 64.5,36C 65.4162,36.3742 66.2496,36.8742 67,37.5C 68.1469,49.0741 68.6469,60.7408 68.5,72.5C 68.6469,84.2592 68.1469,95.9259 67,107.5C 66.5,108 66,108.5 65.5,109C 59.5092,109.499 53.5092,109.666 47.5,109.5C 47.5,84.8333 47.5,60.1667 47.5,35.5 Z" class="heuqDJaA_0"></path></g>
<g><path style="opacity:0.376" fill="transparent" stroke="#FFFFFF" stroke-width="1" d="M 4.5,13.5 C 4.57298,15.0269 3.90632,16.0269 2.5,16.5C 2.42702,14.9731 3.09368,13.9731 4.5,13.5 Z" class="heuqDJaA_1"></path></g>
<g><path style="opacity:0.271" fill="transparent" stroke="#FFFFFF" stroke-width="1" d="M 347.5,19.5 C 348.167,20.1667 348.833,20.8333 349.5,21.5C 349.5,26.1667 349.5,30.8333 349.5,35.5C 349.167,35.5 348.833,35.5 348.5,35.5C 348.608,30.1301 348.275,24.7968 347.5,19.5 Z" class="heuqDJaA_2"></path></g>
<g><path style="opacity:0.059" fill="transparent" stroke="#FFFFFF" stroke-width="1" d="M 99.5,29.5 C 91.5,28.1667 83.5,28.1667 75.5,29.5C 74.7109,29.2172 74.0442,28.7172 73.5,28C 82.8333,27.3333 92.1667,27.3333 101.5,28C 100.956,28.7172 100.289,29.2172 99.5,29.5 Z" class="heuqDJaA_3"></path></g>
<g><path style="opacity:0.06" fill="transparent" stroke="#FFFFFF" stroke-width="1" d="M 157.5,29.5 C 149.5,28.1667 141.5,28.1667 133.5,29.5C 132.711,29.2172 132.044,28.7172 131.5,28C 140.833,27.3333 150.167,27.3333 159.5,28C 158.956,28.7172 158.289,29.2172 157.5,29.5 Z" class="heuqDJaA_4"></path></g>
<g><path style="opacity:0.055" fill="transparent" stroke="#FFFFFF" stroke-width="1" d="M 215.5,29.5 C 207.5,28.1667 199.5,28.1667 191.5,29.5C 190.711,29.2172 190.044,28.7172 189.5,28C 199.167,27.3333 208.833,27.3333 218.5,28C 217.756,29.0386 216.756,29.5386 215.5,29.5 Z" class="heuqDJaA_5"></path></g>
<g><path style="opacity:0.059" fill="transparent" stroke="#FFFFFF" stroke-width="1" d="M 274.5,29.5 C 266.5,28.1667 258.5,28.1667 250.5,29.5C 249.244,29.5386 248.244,29.0386 247.5,28C 257.167,27.3333 266.833,27.3333 276.5,28C 275.956,28.7172 275.289,29.2172 274.5,29.5 Z" class="heuqDJaA_6"></path></g>
<g><path style="opacity:0.067" fill="transparent" stroke="#FFFFFF" stroke-width="1" d="M 323.5,28.5 C 318.5,28.5 313.5,28.5 308.5,28.5C 311.281,27.2335 316.281,27.2335 323.5,28.5 Z" class="heuqDJaA_7"></path></g>
<g><path style="opacity:0.977" fill="transparent" stroke="#FFFFFF" stroke-width="1" d="M 28.5,33.5 C 30.4918,61.8139 31.1585,90.4805 30.5,119.5C 29.5,119.5 28.5,119.5 27.5,119.5C 27.1754,90.7595 27.5087,62.0928 28.5,33.5 Z" class="heuqDJaA_8"></path></g>
<g><path style="opacity:0.988" fill="transparent" stroke="#FFFFFF" stroke-width="1" d="M 88.5,118.5 C 86.5084,90.8533 85.8417,62.8533 86.5,34.5C 86.56,33.9569 86.8933,33.6236 87.5,33.5C 88.4998,61.8255 88.8331,90.1588 88.5,118.5 Z" class="heuqDJaA_9"></path></g>
<g><path style="opacity:0.985" fill="transparent" stroke="#FFFFFF" stroke-width="1" d="M 146.5,118.5 C 144.508,90.8533 143.842,62.8533 144.5,34.5C 144.56,33.9569 144.893,33.6236 145.5,33.5C 146.5,61.8255 146.833,90.1588 146.5,118.5 Z" class="heuqDJaA_10"></path></g>
<g><path style="opacity:0.988" fill="transparent" stroke="#FFFFFF" stroke-width="1" d="M 204.5,34.5 C 205.158,62.8533 204.492,90.8533 202.5,118.5C 202.167,90.1588 202.5,61.8255 203.5,33.5C 204.107,33.6236 204.44,33.9569 204.5,34.5 Z" class="heuqDJaA_11"></path></g>
<g><path style="opacity:0.977" fill="transparent" stroke="#FFFFFF" stroke-width="1" d="M 260.5,34.5 C 261.167,33.1667 261.833,33.1667 262.5,34.5C 262.667,62.502 262.5,90.502 262,118.5C 261.832,90.3303 261.332,62.3303 260.5,34.5 Z" class="heuqDJaA_12"></path></g>
<g><path style="opacity:0.988" fill="transparent" stroke="#FFFFFF" stroke-width="1" d="M 319.5,33.5 C 320.117,33.6107 320.617,33.944 321,34.5C 321.5,62.8314 321.667,91.1647 321.5,119.5C 320.5,119.5 319.5,119.5 318.5,119.5C 318.175,90.7595 318.509,62.0928 319.5,33.5 Z" class="heuqDJaA_13"></path></g>
<g><path style="opacity:0.027" fill="transparent" stroke="#FFFFFF" stroke-width="1" d="M 204.5,34.5 C 205.498,62.6618 205.831,90.9951 205.5,119.5C 204.209,119.737 203.209,119.404 202.5,118.5C 204.492,90.8533 205.158,62.8533 204.5,34.5 Z" class="heuqDJaA_14"></path></g>
<g><path style="opacity:0.02" fill="transparent" stroke="#FFFFFF" stroke-width="1" d="M 144.5,34.5 C 143.842,62.8533 144.508,90.8533 146.5,118.5C 145.791,119.404 144.791,119.737 143.5,119.5C 143.169,90.9951 143.502,62.6618 144.5,34.5 Z" class="heuqDJaA_15"></path></g>
<g><path style="opacity:0.494" fill="transparent" stroke="#FFFFFF" stroke-width="1" d="M 254.5,37.5 C 255.498,64.6616 255.831,91.9949 255.5,119.5C 251.298,119.817 247.298,119.483 243.5,118.5C 247.167,118.5 250.833,118.5 254.5,118.5C 254.5,91.5 254.5,64.5 254.5,37.5 Z" class="heuqDJaA_16"></path></g>
<g><path style="opacity:0.248" fill="transparent" stroke="#FFFFFF" stroke-width="1" d="M 260.5,34.5 C 261.332,62.3303 261.832,90.3303 262,118.5C 262.5,90.502 262.667,62.502 262.5,34.5C 263.498,62.6618 263.831,90.9951 263.5,119.5C 262.5,119.5 261.5,119.5 260.5,119.5C 260.5,91.1667 260.5,62.8333 260.5,34.5 Z" class="heuqDJaA_17"></path></g>
<g><path style="opacity:0.906" fill="transparent" stroke="#FFFFFF" stroke-width="1" d="M 348.5,37.5 C 347.232,44.044 346.565,50.3774 346.5,56.5C 345.117,49.9937 345.784,43.6604 348.5,37.5 Z" class="heuqDJaA_18"></path></g>
<g><path style="opacity:0.745" fill="transparent" stroke="#FFFFFF" stroke-width="1" d="M 223.5,38.5 C 222.523,49.7524 222.189,61.0857 222.5,72.5C 221.834,67.0101 221.501,61.3435 221.5,55.5C 221.504,49.4585 222.171,43.7918 223.5,38.5 Z" class="heuqDJaA_19"></path></g>
<g><path style="opacity:0.027" fill="transparent" stroke="#FFFFFF" stroke-width="1" d="M 25.5,28.5 C 28.9619,27.5184 32.6286,27.185 36.5,27.5C 36.8315,58.0046 36.4981,88.3379 35.5,118.5C 35.5,88.5 35.5,58.5 35.5,28.5C 32.1667,28.5 28.8333,28.5 25.5,28.5 Z" class="heuqDJaA_20"></path></g>
<g><path style="opacity:0.067" fill="transparent" stroke="#FFFFFF" stroke-width="1" d="M 86.5,34.5 C 85.8417,62.8533 86.5084,90.8533 88.5,118.5C 87.791,119.404 86.791,119.737 85.5,119.5C 85.1687,90.9951 85.502,62.6618 86.5,34.5 Z" class="heuqDJaA_21"></path></g>
<g><path style="opacity:0.733" fill="transparent" stroke="#FFFFFF" stroke-width="1" d="M 210.5,38.5 C 211.498,64.9948 211.831,91.6614 211.5,118.5C 214.833,118.5 218.167,118.5 221.5,118.5C 221.172,107.654 221.506,96.9869 222.5,86.5C 222.5,97.5 222.5,108.5 222.5,119.5C 218.5,119.5 214.5,119.5 210.5,119.5C 210.5,92.5 210.5,65.5 210.5,38.5 Z" class="heuqDJaA_22"></path></g>
<g><path style="opacity:0.027" fill="transparent" stroke="#FFFFFF" stroke-width="1" d="M 125.5,77.5 C 125.56,76.9569 125.893,76.6236 126.5,76.5C 127.499,90.4841 127.833,104.484 127.5,118.5C 131.167,118.5 134.833,118.5 138.5,118.5C 134.702,119.483 130.702,119.817 126.5,119.5C 126.829,105.323 126.496,91.3234 125.5,77.5 Z" class="heuqDJaA_23"></path></g>
<g><path style="opacity:0.196" fill="transparent" stroke="#FFFFFF" stroke-width="1" d="M 200.5,115.5 C 201.434,116.568 201.768,117.901 201.5,119.5C 197.298,119.817 193.298,119.483 189.5,118.5C 193.167,118.5 196.833,118.5 200.5,118.5C 200.5,117.5 200.5,116.5 200.5,115.5 Z" class="heuqDJaA_24"></path></g>
<style data-made-with="vivus-instant">.heuqDJaA_0{stroke-dasharray:2966 2968;stroke-dashoffset:2967;animation:heuqDJaA_draw 3755ms linear 0ms forwards;}.heuqDJaA_1{stroke-dasharray:8 10;stroke-dashoffset:9;animation:heuqDJaA_draw 11ms linear 3755ms forwards;}.heuqDJaA_2{stroke-dasharray:34 36;stroke-dashoffset:35;animation:heuqDJaA_draw 44ms linear 3766ms forwards;}.heuqDJaA_3{stroke-dasharray:58 60;stroke-dashoffset:59;animation:heuqDJaA_draw 74ms linear 3810ms forwards;}.heuqDJaA_4{stroke-dasharray:58 60;stroke-dashoffset:59;animation:heuqDJaA_draw 74ms linear 3885ms forwards;}.heuqDJaA_5{stroke-dasharray:60 62;stroke-dashoffset:61;animation:heuqDJaA_draw 77ms linear 3960ms forwards;}.heuqDJaA_6{stroke-dasharray:60 62;stroke-dashoffset:61;animation:heuqDJaA_draw 77ms linear 4037ms forwards;}.heuqDJaA_7{stroke-dasharray:31 33;stroke-dashoffset:32;animation:heuqDJaA_draw 40ms linear 4114ms forwards;}.heuqDJaA_8{stroke-dasharray:176 178;stroke-dashoffset:177;animation:heuqDJaA_draw 224ms linear 4155ms forwards;}.heuqDJaA_9{stroke-dasharray:171 173;stroke-dashoffset:172;animation:heuqDJaA_draw 217ms linear 4379ms forwards;}.heuqDJaA_10{stroke-dasharray:171 173;stroke-dashoffset:172;animation:heuqDJaA_draw 217ms linear 4596ms forwards;}.heuqDJaA_11{stroke-dasharray:171 173;stroke-dashoffset:172;animation:heuqDJaA_draw 217ms linear 4814ms forwards;}.heuqDJaA_12{stroke-dasharray:171 173;stroke-dashoffset:172;animation:heuqDJaA_draw 217ms linear 5032ms forwards;}.heuqDJaA_13{stroke-dasharray:176 178;stroke-dashoffset:177;animation:heuqDJaA_draw 224ms linear 5249ms forwards;}.heuqDJaA_14{stroke-dasharray:173 175;stroke-dashoffset:174;animation:heuqDJaA_draw 220ms linear 5473ms forwards;}.heuqDJaA_15{stroke-dasharray:173 175;stroke-dashoffset:174;animation:heuqDJaA_draw 220ms linear 5694ms forwards;}.heuqDJaA_16{stroke-dasharray:187 189;stroke-dashoffset:188;animation:heuqDJaA_draw 237ms linear 5914ms forwards;}.heuqDJaA_17{stroke-dasharray:342 344;stroke-dashoffset:343;animation:heuqDJaA_draw 434ms linear 6152ms forwards;}.heuqDJaA_18{stroke-dasharray:39 41;stroke-dashoffset:40;animation:heuqDJaA_draw 50ms linear 6586ms forwards;}.heuqDJaA_19{stroke-dasharray:69 71;stroke-dashoffset:70;animation:heuqDJaA_draw 88ms linear 6636ms forwards;}.heuqDJaA_20{stroke-dasharray:203 205;stroke-dashoffset:204;animation:heuqDJaA_draw 258ms linear 6725ms forwards;}.heuqDJaA_21{stroke-dasharray:173 175;stroke-dashoffset:174;animation:heuqDJaA_draw 220ms linear 6983ms forwards;}.heuqDJaA_22{stroke-dasharray:249 251;stroke-dashoffset:250;animation:heuqDJaA_draw 316ms linear 7203ms forwards;}.heuqDJaA_23{stroke-dasharray:109 111;stroke-dashoffset:110;animation:heuqDJaA_draw 139ms linear 7520ms forwards;}.heuqDJaA_24{stroke-dasharray:31 33;stroke-dashoffset:32;animation:heuqDJaA_draw 40ms linear 7659ms forwards;}@keyframes heuqDJaA_draw{100%{stroke-dashoffset:0;}}@keyframes heuqDJaA_fade{0%{stroke-opacity:1;}96.63865546218487%{stroke-opacity:1;}100%{stroke-opacity:0;}}</style></svg>
