<?xml version="1.0" encoding="UTF-8" standalone="no"?> 
<svg id="Layer_1" data-name="Layer 1" xmlns="http://www.w3.org/2000/svg" viewBox="0 0 512 512"><title>whatsapp-square-glyph</title><g id="WhatsApp"><rect id="back" width="512" height="512" fill="transparent"/><g id="whatsApp-2" data-name="whatsApp"><path d="M328.52,288.76c-.89-1.49-3.27-2.38-6.84-4.17S300.58,274.18,297.31,273s-5.65-1.79-8,1.79-9.21,11.61-11.29,14-4.16,2.68-7.73.89-15.06-5.55-28.68-17.71c-10.61-9.46-17.77-21.14-19.84-24.71s-.22-5.5,1.56-7.28c1.61-1.6,3.57-4.17,5.35-6.25a24.49,24.49,0,0,0,3.57-6,6.58,6.58,0,0,0-.3-6.25c-.89-1.79-8-19.34-11-26.48-2.89-7-5.84-6-8-6.13s-4.46-.12-6.84-.12a13.11,13.11,0,0,0-9.51,4.46c-3.27,3.57-12.48,12.2-12.48,29.76s12.78,34.52,14.57,36.9,25.15,38.41,60.94,53.86a204.73,204.73,0,0,0,20.34,7.52,48.89,48.89,0,0,0,22.46,1.41c6.86-1,21.11-8.63,24.08-17S329.41,290.25,328.52,288.76Z" fill="#FFFFFF" stroke="#FFFFFF" stroke-width="3" fill-rule="evenodd"/></g></g></svg>